<svg viewBox="0 0 20 20" fill="currentColor" xmlns="http://www.w3.org/2000/svg" class="shrink-0 opacity-100 scale-100 group-hover:opacity-0 group-hover:scale-80 transition-all text-text-300"><path fill-rule="evenodd" clip-rule="evenodd" d="M2.5 3C1.67157 3 1 3.67157 1 4.5V15.5C1 16.3284 1.67157 17 2.5 17H17.5C18.3284 17 19 16.3284 19 15.5V4.5C19 3.67157 18.3284 3 17.5 3H2.5ZM2 4.5C2 4.22386 2.22386 4 2.5 4H6V16H2.5C2.22386 16 2 15.7761 2 15.5V4.5ZM7 16H17.5C17.7761 16 18 15.7761 18 15.5V4.5C18 4.22386 17.7761 4 17.5 4H7V16Z"/></svg>